<svg xmlns="http://www.w3.org/2000/svg" width="1200" height="420" viewBox="0 0 1200 420" role="img" aria-labelledby="title desc">
  <title id="title">Codenotch — Codex &amp; System</title>
  <desc id="desc">Лимиты Codex и состояние Mac в одной панели. Декоративная схема индикаторов, не снимок приложения.</desc>
  <defs>
    <linearGradient id="bg" x2="1" y2="1"><stop stop-color="#101b2b"/><stop offset="1" stop-color="#080d17"/></linearGradient>
    <linearGradient id="accent"><stop stop-color="#66e0cb"/><stop offset="1" stop-color="#71a9ff"/></linearGradient>
  </defs>
  <rect width="1200" height="420" rx="28" fill="url(#bg)"/>
  <circle cx="1120" cy="10" r="240" fill="#162a43" opacity=".45"/>
  <circle cx="1100" cy="440" r="190" fill="#153e39" opacity=".32"/>
  <g font-family="-apple-system,BlinkMacSystemFont,Segoe UI,Arial,sans-serif">
    <rect x="54" y="48" width="199" height="28" rx="14" fill="#18382f"/>
    <circle cx="71" cy="62" r="4" fill="#72e2ba"/>
    <text x="84" y="67" fill="#a6edce" font-size="12" font-weight="600" letter-spacing="1.1">MACOS · OPEN SOURCE</text>
    <text x="54" y="152" fill="#f3f7ff" font-size="65" font-weight="700" letter-spacing="-2">Codenotch</text>
    <text x="57" y="198" fill="url(#accent)" font-size="30" font-weight="500">Codex &amp; System</text>
    <text x="57" y="252" fill="#c1ccdf" font-size="23">Всё важное — у края экрана.</text>
    <text x="57" y="287" fill="#8797b1" font-size="17">Лимиты Codex. Состояние Mac. Один взгляд.</text>
    <path d="M57 329H540" stroke="#28374c"/>
    <text x="57" y="361" fill="#9baac0" font-size="14">РУССКИЙ ИНТЕРФЕЙС</text>
    <circle cx="258" cy="356" r="2" fill="#58748c"/>
    <text x="275" y="361" fill="#9baac0" font-size="14">ЛОКАЛЬНЫЕ ДАТЧИКИ</text>
    <rect x="660" y="45" width="486" height="328" rx="25" fill="#111e30" stroke="#2b3d56"/>
    <text x="690" y="78" fill="#71869f" font-size="11" letter-spacing="1.7">ШЕСТЬ ИНДИКАТОРОВ · ОДНА ПАНЕЛЬ</text>
    <g fill="none" stroke="#2a3a50" stroke-width="7">
      <circle cx="751" cy="151" r="35"/><circle cx="902" cy="151" r="35"/><circle cx="1053" cy="151" r="35"/>
      <circle cx="751" cy="282" r="35"/><circle cx="902" cy="282" r="35"/><circle cx="1053" cy="282" r="35"/>
    </g>
    <g fill="none" stroke="url(#accent)" stroke-width="7" stroke-linecap="round">
      <path d="M751 116a35 35 0 1 1-35 35"/><path d="M902 116a35 35 0 0 1 35 35"/><path d="M1053 116a35 35 0 1 1-35 35"/>
      <path d="M751 247a35 35 0 0 1 35 35"/><path d="M902 247a35 35 0 1 1-35 35"/><path d="M1053 247a35 35 0 1 1-35 35"/>
    </g>
    <g fill="#e5eefb" font-size="16" font-weight="600" text-anchor="middle">
      <text x="751" y="157">RAM</text><text x="902" y="157">CPU</text><text x="1053" y="157">SSD</text>
      <text x="751" y="288">ТЕПЛО</text><text x="902" y="288">АКБ</text><text x="1053" y="288">AI</text>
    </g>
    <g fill="#a3b2c8" font-size="13" text-anchor="middle">
      <text x="751" y="211">Память</text><text x="902" y="211">Процессор</text><text x="1053" y="211">Диск</text>
      <text x="751" y="341">Нагрев</text><text x="902" y="341">Батарея</text><text x="1053" y="341">Codex</text>
    </g>
  </g>
</svg>
